<?xml version="1.0" encoding="UTF-8" standalone="no"?>
<svg
   xmlns:dc="http://purl.org/dc/elements/1.1/"
   xmlns:cc="http://creativecommons.org/ns#"
   xmlns:rdf="http://www.w3.org/1999/02/22-rdf-syntax-ns#"
   xmlns:svg="http://www.w3.org/2000/svg"
   xmlns="http://www.w3.org/2000/svg"
   version="1.1"
   id="svg2"
   viewBox="0 0 744.09448819 1052.3622047"
   height="297mm"
   width="210mm">
  <defs
     id="defs4" />
  <metadata
     id="metadata7">
    <rdf:RDF>
      <cc:Work
         rdf:about="">
        <dc:format>image/svg+xml</dc:format>
        <dc:type
           rdf:resource="http://purl.org/dc/dcmitype/StillImage" />
        <dc:title></dc:title>
      </cc:Work>
    </rdf:RDF>
  </metadata>
  <g
     id="layer1">
    <path
       id="path4147"
       d="m 157.14285,303.0765 0,-150 150,0 150,0 0,150 0,150 -150,0 -150,0 0,-150 z m 4.35,148.8 c 0.10557,-0.17082 -0.15279,-0.3 -0.6,-0.3 -0.44721,0 -0.70557,0.12918 -0.6,0.3 0.10198,0.165 0.37198,0.3 0.6,0.3 0.22802,0 0.49802,-0.135 0.6,-0.3 z m 6,0 c 0.10846,-0.1755 -0.20279,-0.3 -0.75,-0.3 -0.54721,0 -0.85846,0.1245 -0.75,0.3 0.10198,0.165 0.43948,0.3 0.75,0.3 0.31052,0 0.64802,-0.135 0.75,-0.3 z m 6.61766,-0.14046 c 0.739,-0.55895 2.16366,-0.56329 3.13234,-0.01 0.9041,0.51683 2.15668,0.57331 2.61221,0.1178 0.18271,-0.18272 0.78346,-0.42446 1.335,-0.53722 l 1.00279,-0.205 0.15615,-17.23779 c 0.0859,-9.48079 0.18713,-17.27262 0.225,-17.31519 0.0379,-0.0426 8.0001,-0.0426 17.69385,0 l 17.625,0.0774 0,5.7 0,5.7 -11.7,0.15 -11.7,0.15 -0.0787,11.39594 -0.0787,11.39593 0.67867,0.5224 c 0.85443,0.65766 2.13114,0.67899 3.08867,0.0516 0.78715,-0.51576 1.72987,-0.45536 3.36501,0.2156 0.81259,0.33343 1.13741,0.33343 1.95,0 0.53625,-0.22004 1.34625,-0.46746 1.8,-0.54983 0.45375,-0.0824 0.85083,-0.16817 0.88241,-0.19069 0.0316,-0.0225 0.13282,-2.47095 0.225,-5.44095 l 0.16759,-5.4 17.55,0 17.55,0 0.15,5.35228 c 0.14507,5.17642 0.17327,5.37109 0.85823,5.925 0.83884,0.67833 2.06317,0.72654 2.87411,0.11318 0.32028,-0.24225 1.00323,-0.44046 1.51766,-0.44046 0.51443,0 1.19737,0.19821 1.51766,0.44046 0.69125,0.52283 2.27555,0.59633 2.74455,0.12734 0.18271,-0.18272 0.78346,-0.42438 1.33499,-0.53704 l 1.0028,-0.20482 0.082,-5.13201 c 0.0606,-3.79215 0.18492,-5.21745 0.47633,-5.45931 0.26574,-0.22054 4.10452,-0.35297 11.76805,-0.40597 l 11.37367,-0.0786 0.15514,-29.55 c 0.0853,-16.2525 0.18657,-29.58375 0.225,-29.625 0.0384,-0.0412 2.53361,-0.0771 5.54486,-0.0796 3.01125,-0.002 5.64682,-0.11364 5.85682,-0.24692 0.29196,-0.1853 0.36256,-1.57844 0.3,-5.92041 l -0.0818,-5.67808 -17.37222,-0.0775 c -12.22293,-0.0545 -17.49161,-0.17654 -17.775,-0.41173 -0.54669,-0.45371 -0.58569,-10.7579 -0.0428,-11.30081 0.55668,-0.55668 93.93395,-0.51975 94.3963,0.0373 0.20623,0.2485 0.36046,2.46792 0.41173,5.925 l 0.082,5.52766 29.625,0.0765 c 16.29375,0.0421 29.63048,-0.0254 29.63717,-0.15 0.007,-0.12455 0.0405,-2.69519 0.075,-5.71253 0.0516,-4.50186 0.14356,-5.53709 0.51283,-5.77041 0.61577,-0.38908 10.08876,-0.37416 10.81972,0.017 0.56608,0.30296 0.58028,0.88222 0.58028,23.66791 0,21.0221 -0.0475,23.37555 -0.47454,23.53944 -0.26099,0.10016 -5.43149,0.1821 -11.49,0.1821 -8.16758,0 -11.10853,-0.0931 -11.37546,-0.36 -0.26728,-0.26728 -0.36,-3.27607 -0.36,-11.6823 0,-6.98717 -0.11136,-11.39112 -0.29085,-11.50205 -0.20455,-0.12642 -27.60381,-0.24974 -35.18415,-0.15836 -0.12375,10e-4 -0.225,2.63521 -0.225,5.85271 l 0,5.85 11.51327,0 c 9.42389,0 11.57562,0.0751 11.8569,0.41406 0.23761,0.2863 0.31837,2.11444 0.26174,5.925 l -0.0819,5.51093 -17.38254,0.0775 c -11.89393,0.053 -17.48278,-0.0225 -17.7,-0.23911 -0.18909,-0.18857 -0.37811,-2.58542 -0.46746,-5.92747 l -0.15,-5.61088 -5.7,-0.15 -5.7,-0.15 -0.15,-11.7 -0.15,-11.7 -17.78135,-0.0774 -17.78135,-0.0774 0.0813,5.92738 0.0813,5.92738 11.7,0.15 11.7,0.15 0,5.7 0,5.7 -17.7,0.15 -17.7,0.15 0,23.7 0,23.7 23.53116,0.0768 c 18.62649,0.0608 23.58102,-0.002 23.7704,-0.3 0.31048,-0.48903 0.3129,-10.76088 0.003,-11.2494 -0.1831,-0.28833 -4.20076,-0.39006 -17.7704,-0.45 l -17.53386,-0.0774 0,-11.7 0,-11.7 17.46315,-0.0774 c 17.31843,-0.0768 17.46588,-0.0723 17.79119,0.53552 0.20728,0.3873 0.30799,2.49459 0.27358,5.72415 -0.0299,2.81116 0.0676,5.23326 0.21679,5.38245 0.14918,0.14918 2.76515,0.30815 5.81326,0.35326 l 5.54203,0.082 0.15,11.7 0.15,11.7 5.52766,0.082 c 3.45708,0.0513 5.6765,0.2055 5.925,0.41173 0.30171,0.2504 0.39734,1.57622 0.39734,5.50853 0,5.17326 9e-4,5.17928 0.73945,5.66327 0.94201,0.61723 2.07888,0.61736 3.02054,3e-4 0.78715,-0.51576 1.72987,-0.45536 3.36501,0.2156 0.81259,0.33343 1.13741,0.33343 1.95,0 1.60798,-0.65981 2.49621,-0.71348 3.47042,-0.20969 1.15314,0.59631 2.16646,0.6094 2.92224,0.0378 0.739,-0.55895 2.16366,-0.56328 3.13234,-0.01 0.96504,0.55167 2.09539,0.54786 2.83234,-0.01 0.32028,-0.24218 1.00323,-0.44039 1.51766,-0.44039 0.51443,0 1.19737,0.19821 1.51766,0.44046 0.32029,0.24225 0.98734,0.44046 1.48234,0.44046 0.495,0 1.16205,-0.19821 1.48234,-0.44046 0.32028,-0.24225 1.00323,-0.44046 1.51766,-0.44046 0.51443,0 1.19737,0.19821 1.51766,0.44046 0.32029,0.24225 0.98734,0.44046 1.48234,0.44046 0.495,0 1.16205,-0.19821 1.48234,-0.44046 0.7476,-0.56546 2.28772,-0.56546 3.03532,0 0.32029,0.24225 0.98734,0.44046 1.48234,0.44046 0.495,0 1.16205,-0.19821 1.48234,-0.44046 0.75578,-0.57164 1.7691,-0.55855 2.92224,0.0378 0.97421,0.50379 1.86244,0.45012 3.47042,-0.20969 0.81259,-0.33343 1.13741,-0.33343 1.95,0 1.62375,0.66628 2.53898,0.72574 3.27164,0.21257 0.85813,-0.60106 2.35433,-0.62054 3.12102,-0.0406 0.74715,0.56512 2.21753,0.56512 2.96468,0 0.7476,-0.56546 2.28772,-0.56546 3.03532,0 0.74715,0.56512 2.21753,0.56512 2.96468,0 0.7476,-0.56546 2.28772,-0.56546 3.03532,0 0.74715,0.56512 2.21753,0.56512 2.96468,0 0.76669,-0.5799 2.26289,-0.56042 3.12102,0.0406 0.73266,0.51317 1.64789,0.45371 3.27164,-0.21257 0.81259,-0.33343 1.13741,-0.33343 1.95,0 1.63514,0.67096 2.57786,0.73136 3.36501,0.2156 0.90423,-0.59247 2.15956,-0.60603 3.15999,-0.0341 0.96504,0.55167 2.09539,0.54786 2.83234,-0.01 0.7476,-0.56546 2.28772,-0.56546 3.03532,0 0.32029,0.24225 0.91097,0.44475 1.31262,0.45 0.98162,0.0128 3.31972,-1.14429 3.31972,-1.64291 0,-0.21941 0.22463,-0.79032 0.49918,-1.2687 0.46558,-0.81121 0.46558,-0.93713 0,-1.8704 -0.63794,-1.27878 -0.63905,-3.11608 -0.002,-4.08761 0.46226,-0.70549 0.46226,-0.83026 0,-1.79962 -0.61962,-1.29936 -0.63572,-2.88216 -0.041,-4.03218 0.40756,-0.78814 0.40756,-0.99632 0,-1.97174 -0.58166,-1.39211 -0.57937,-2.77716 0.007,-3.95163 0.41627,-0.83444 0.41627,-1.03644 0,-2.03273 -0.58786,-1.40695 -0.58786,-2.78888 0,-3.96727 0.41627,-0.83444 0.41627,-1.03644 0,-2.03273 -0.59998,-1.43594 -0.58659,-2.8676 0.037,-3.95409 0.46557,-0.81121 0.46557,-0.93714 0,-1.8704 -0.63781,-1.27851 -0.63781,-3.01829 0,-4.1296 0.46557,-0.81121 0.46557,-0.93714 0,-1.8704 -0.63794,-1.27878 -0.63906,-3.11608 -0.002,-4.08761 0.46225,-0.70549 0.46225,-0.83026 0,-1.79962 -0.61963,-1.29936 -0.63573,-2.88216 -0.041,-4.03218 0.40756,-0.78814 0.40756,-0.99632 0,-1.97174 -0.58166,-1.39211 -0.57937,-2.77716 0.007,-3.95163 0.41628,-0.83444 0.41628,-1.03644 0,-2.03273 -0.58786,-1.40695 -0.58786,-2.78888 0,-3.96727 0.41628,-0.83444 0.41628,-1.03644 0,-2.03273 -0.59997,-1.43594 -0.58658,-2.8676 0.037,-3.95409 0.46557,-0.81121 0.46557,-0.93713 0,-1.8704 -0.63781,-1.27851 -0.63781,-3.01829 0,-4.1296 0.46557,-0.81121 0.46557,-0.93713 0,-1.8704 -0.63794,-1.27878 -0.63906,-3.11608 -0.002,-4.08761 0.46226,-0.70549 0.46226,-0.83026 0,-1.79962 -0.61962,-1.29936 -0.63573,-2.88216 -0.041,-4.03218 0.40756,-0.78814 0.40756,-0.99632 0,-1.97174 -0.58166,-1.39211 -0.57937,-2.77716 0.007,-3.95163 0.41627,-0.83444 0.41627,-1.03644 0,-2.03273 -0.58787,-1.40695 -0.58787,-2.78888 0,-3.96727 0.41627,-0.83444 0.41627,-1.03644 0,-2.03273 -0.59998,-1.43594 -0.58659,-2.8676 0.037,-3.95409 0.46557,-0.81121 0.46557,-0.93714 0,-1.8704 -0.63781,-1.27851 -0.63781,-3.01829 0,-4.1296 0.46557,-0.81121 0.46557,-0.93714 0,-1.8704 -0.63073,-1.26432 -0.63702,-2.7717 -0.0166,-3.9715 0.44347,-0.85757 0.44347,-1.01531 0,-1.94528 -0.60657,-1.272 -0.61727,-2.86105 -0.0269,-4.00263 0.40756,-0.78814 0.40756,-0.99632 0,-1.97174 -0.58166,-1.39211 -0.57937,-2.77716 0.007,-3.95163 0.41627,-0.83444 0.41627,-1.03644 0,-2.03273 -0.58786,-1.40695 -0.58786,-2.78888 0,-3.96727 0.41627,-0.83444 0.41627,-1.03644 0,-2.03273 -0.59997,-1.43594 -0.58659,-2.8676 0.037,-3.95409 0.46557,-0.81121 0.46557,-0.93713 0,-1.8704 -0.63781,-1.27852 -0.63781,-3.01829 0,-4.1296 0.46557,-0.81121 0.46557,-0.93713 0,-1.8704 -0.63073,-1.26432 -0.63702,-2.7717 -0.0166,-3.9715 0.44347,-0.85757 0.44347,-1.01531 0,-1.94528 -0.60658,-1.272 -0.61727,-2.86105 -0.0269,-4.00264 0.40756,-0.78813 0.40756,-0.99631 0,-1.97173 -0.58166,-1.39211 -0.57937,-2.77716 0.007,-3.95163 0.41627,-0.83444 0.41627,-1.03644 0,-2.03273 -0.58787,-1.40695 -0.58787,-2.78888 0,-3.96727 0.41627,-0.83444 0.41627,-1.03644 0,-2.03273 -0.59998,-1.43594 -0.58659,-2.8676 0.037,-3.95409 0.46557,-0.81121 0.46557,-0.93713 0,-1.8704 -0.63781,-1.27852 -0.63781,-3.01829 0,-4.1296 0.46557,-0.81121 0.46557,-0.93713 0,-1.8704 -0.63073,-1.26432 -0.63702,-2.7717 -0.0166,-3.9715 0.44347,-0.85757 0.44347,-1.01531 0,-1.94528 -0.60657,-1.272 -0.61727,-2.86105 -0.0269,-4.00263 0.40756,-0.78814 0.40756,-0.99632 0,-1.97174 -0.59207,-1.41703 -0.5775,-2.78091 0.043,-4.02475 0.47175,-0.94563 0.46766,-1.05753 -0.0755,-2.07109 l -0.57446,-1.07146 -17.23328,-0.0775 c -13.32922,-0.0599 -17.28688,-0.16188 -17.46986,-0.45 -0.13012,-0.20489 -0.23865,-8.07427 -0.24118,-17.48752 -0.003,-12.91688 0.0837,-17.2033 0.35541,-17.475 0.51623,-0.51623 10.43252,-0.50287 11.13139,0.015 0.45711,0.33872 0.51344,1.49229 0.58234,11.925 l 0.0763,11.55 5.7,0 5.7,0 0.15,-11.63619 c 0.12768,-9.90462 0.21696,-11.67849 0.6,-11.92041 0.2475,-0.15631 2.70868,-0.28628 5.46928,-0.28881 l 5.01929,-0.005 0.18386,-0.825 c 0.10113,-0.45375 0.38176,-1.2674 0.62364,-1.80811 0.38988,-0.87156 0.38669,-1.08955 -0.0281,-1.92109 -0.60919,-1.22116 -0.59571,-2.97451 0.0313,-4.06695 0.46557,-0.81121 0.46557,-0.93714 0,-1.8704 -0.63781,-1.27851 -0.63781,-3.01829 0,-4.1296 0.46557,-0.81121 0.46557,-0.93714 0,-1.8704 -0.63073,-1.26432 -0.63702,-2.7717 -0.0166,-3.9715 0.44347,-0.85758 0.44347,-1.01531 0,-1.94528 -0.60658,-1.272 -0.61727,-2.86105 -0.0269,-4.00264 0.40756,-0.78813 0.40756,-0.99631 0,-1.97173 -0.58166,-1.39211 -0.57937,-2.77716 0.007,-3.95163 0.41627,-0.83444 0.41627,-1.03644 0,-2.03273 -0.59074,-1.41383 -0.58737,-2.78987 0.01,-3.98685 0.42929,-0.86054 0.42929,-1.03164 0,-1.89218 -0.61289,-1.22857 -0.6012,-2.98012 0.0272,-4.07506 0.46557,-0.81121 0.46557,-0.93714 0,-1.8704 -0.63781,-1.27851 -0.63781,-3.01829 0,-4.1296 0.46557,-0.81121 0.46557,-0.93714 0,-1.8704 -0.61712,-1.23702 -0.64456,-3.00158 -0.0587,-3.77611 0.53713,-0.71015 0.5884,-1.98348 0.0995,-2.47234 -0.198,-0.198 -0.80092,-0.36 -1.33982,-0.36 -0.5389,0 -1.46251,-0.23018 -2.05247,-0.51151 -1.01801,-0.48546 -1.12422,-0.48373 -2.08536,0.0339 -1.11279,0.59928 -2.621,0.54641 -4.29498,-0.15055 -0.72583,-0.3022 -1.11784,-0.32384 -1.5,-0.0828 -0.48159,0.30376 -0.52268,1.95768 -0.59419,23.91865 -0.0422,12.97578 -0.10975,23.62338 -0.15,23.66133 -0.0403,0.0379 -8.03818,0.1392 -17.77318,0.225 l -17.7,0.156 -0.0824,28.95 c -0.0453,15.9225 -0.009,29.25267 0.0801,29.6226 l 0.16253,0.67261 17.61988,0.0774 17.61989,0.0774 0,17.7 0,17.7 -11.36487,0.0786 c -8.13911,0.0563 -11.48128,-0.018 -11.775,-0.26173 -0.58552,-0.48594 -0.59722,-10.83817 -0.0128,-11.32321 0.24851,-0.20623 2.46792,-0.36046 5.925,-0.41173 l 5.52765,-0.082 0.082,-5.52803 c 0.0451,-3.04041 -0.0377,-5.64772 -0.18401,-5.79401 -0.14908,-0.14908 -7.76908,-0.25365 -17.33727,-0.23793 -13.43605,0.0221 -17.18196,-0.0537 -17.59103,-0.35599 -0.48414,-0.35773 -0.52489,-1.98728 -0.59471,-23.78404 l -0.075,-23.4 -11.7,-0.15 -11.7,-0.15 -0.0815,-5.775 c -0.0448,-3.17625 -0.0448,-5.80478 0,-5.84117 0.0448,-0.0364 5.34648,-0.13764 11.78148,-0.225 l 11.7,-0.15883 0.15,-11.7 0.15,-11.7 5.775,-0.0815 c 3.17625,-0.0448 5.77712,-0.17981 5.77972,-0.3 0.003,-0.12019 0.0465,-2.69349 0.0977,-5.71846 0.0736,-4.35739 0.18171,-5.55613 0.52028,-5.77041 0.68593,-0.43412 10.26816,-0.35004 10.8662,0.0953 0.43436,0.32349 0.51435,1.13733 0.58234,5.925 l 0.0788,5.55 5.85,0 5.85,0 0.0785,-11.58537 c 0.0614,-9.05712 -0.004,-11.64313 -0.3,-11.85 -0.21129,-0.14773 -8.09809,-0.22939 -17.85349,-0.18485 l -17.475,0.0798 0,5.37069 c 0,2.95388 -0.0819,5.58423 -0.1821,5.84522 -0.16166,0.4213 -1.47236,0.47454 -11.68229,0.47454 -8.68158,0 -11.55525,0.0891 -11.72482,0.36345 -0.16464,0.26638 -0.26484,9.34696 -0.12593,11.41155 0.008,0.12375 2.4341,0.225 5.3906,0.225 2.95651,0 5.58901,0.0819 5.85,0.1821 0.40887,0.15689 0.47454,0.94421 0.47454,5.68944 0,5.13792 -0.0389,5.52818 -0.58028,5.81791 -0.37046,0.19826 -4.65593,0.31055 -11.85238,0.31055 l -11.2721,0 0.0774,17.775 0.0774,17.775 11.7,0.15 11.7,0.15 0,5.7 0,5.7 -11.7,0.15 -11.7,0.15 0,5.85 0,5.85 11.7,0.15884 c 6.435,0.0874 11.73375,0.18861 11.775,0.22499 0.0412,0.0364 0.075,2.55892 0.075,5.60562 0,5.16964 -0.0387,5.56017 -0.58028,5.85 -0.91254,0.48837 -45.64847,0.42503 -46.31943,-0.0656 -0.45917,-0.33576 -0.50559,-0.97186 -0.43234,-5.925 l 0.082,-5.54887 5.7,-0.15 5.7,-0.15 0.0762,-35.22076 c 0.0543,-25.07672 0.17132,-35.33531 0.40634,-35.6185 0.24779,-0.29857 1.72467,-0.41805 5.92376,-0.47924 l 5.59366,-0.0815 0.15,-11.7 0.15,-11.7 11.7,-0.15 11.7,-0.15 0.0816,-5.625 0.0816,-5.625 -1.19644,0 c -0.65804,0 -1.68419,-0.23259 -2.28034,-0.51687 -1.02578,-0.48917 -1.13217,-0.48917 -1.98449,0 -1.10253,0.63277 -2.93431,0.6704 -3.71963,0.0764 -0.74183,-0.56109 -1.62285,-0.56109 -2.36468,0 -0.78532,0.59399 -2.6171,0.55636 -3.71963,-0.0764 -0.85232,-0.48917 -0.95871,-0.48917 -1.98449,0 -1.38057,0.65834 -2.86841,0.65834 -4.01551,0 -0.85232,-0.48917 -0.95871,-0.48917 -1.98449,0 -1.38527,0.66059 -2.86918,0.6579 -4.02821,-0.007 -0.8736,-0.50138 -0.95831,-0.4999 -1.94949,0.0339 -1.13702,0.61232 -2.63116,0.56461 -4.31847,-0.1379 -0.72563,-0.30212 -1.11795,-0.32381 -1.5,-0.0829 -0.47102,0.29696 -0.53081,1.37142 -0.66737,11.99365 l -0.15,11.66747 -5.54203,0.082 c -3.04811,0.0451 -5.65342,0.19342 -5.78958,0.32958 -0.13615,0.13615 -0.23782,7.82558 -0.22591,17.08762 0.0119,9.26204 -0.0637,17.17998 -0.16794,17.59542 l -0.18959,0.75535 -5.66747,0 c -3.11711,0 -5.69725,-0.0338 -5.73364,-0.075 -0.0364,-0.0412 -0.13764,-5.34 -0.225,-11.775 l -0.15884,-11.7 -29.63135,-0.0765 -29.63134,-0.0765 0.0813,5.92647 0.0813,5.92646 5.7,0.15 5.7,0.15 0.0815,5.775 0.0815,5.775 -11.67439,0 c -10.36876,0 -11.69474,-0.0531 -11.85647,-0.47454 -0.10016,-0.26099 -0.1821,-2.89349 -0.1821,-5.85 0,-2.9565 -0.10125,-5.3802 -0.225,-5.38598 -0.12375,-0.006 -2.67752,-0.0395 -5.67505,-0.075 -2.99754,-0.0355 -5.56254,-0.17687 -5.70001,-0.31424 -0.32137,-0.32114 -0.48611,-30.96681 -0.17927,-33.35024 l 0.23173,-1.8 11.52886,-0.0786 c 9.02388,-0.0615 11.58108,0.004 11.76921,0.3 0.13219,0.20824 0.24241,2.84303 0.24494,5.85508 l 0.005,5.47647 29.625,-0.0765 29.625,-0.0765 0.0815,-5.775 c 0.0637,-4.51283 -0.002,-5.77618 -0.3,-5.7804 -0.20981,-0.003 -10.70898,-0.004 -23.33148,-0.002 -14.1113,0.002 -23.12331,-0.10675 -23.4,-0.28333 -0.42953,-0.27414 -0.50048,-1.56625 -0.59765,-10.88474 -0.001,-0.12375 -0.58405,-0.225 -1.29501,-0.225 -0.71097,0 -1.55472,-0.19821 -1.875,-0.44046 -0.74183,-0.56109 -1.62285,-0.56109 -2.36468,0 -0.78532,0.59399 -2.6171,0.55636 -3.71963,-0.0764 -0.85232,-0.48917 -0.95871,-0.48917 -1.98449,0 -1.38057,0.65834 -2.86841,0.65834 -4.01551,0 -0.85232,-0.48917 -0.95871,-0.48917 -1.98449,0 -1.38567,0.66078 -2.8668,0.65779 -4.03923,-0.008 -0.88029,-0.5 -0.96833,-0.5 -1.84862,0 -1.17243,0.66592 -2.65356,0.66891 -4.03923,0.008 -1.02578,-0.48917 -1.13217,-0.48917 -1.98449,0 -1.1471,0.65834 -2.63494,0.65834 -4.01551,0 -1.02578,-0.48917 -1.13217,-0.48917 -1.98449,0 -1.14893,0.6594 -2.65501,0.6594 -3.80394,0 -0.85232,-0.48917 -0.95871,-0.48917 -1.98449,0 -1.34866,0.64313 -2.78544,0.65951 -4.01569,0.0458 -0.51938,-0.2591 -1.24888,-0.42785 -1.62109,-0.375 -0.67202,0.0954 -0.67731,0.13606 -0.75545,5.7961 -0.0681,4.92889 -0.14683,5.75073 -0.58234,6.075 -0.3926,0.29232 -5.54651,0.375 -23.37488,0.375 -20.39203,0 -22.92233,-0.0511 -23.34266,-0.47143 -0.39251,-0.3925 -0.47143,-1.34675 -0.47143,-5.7 l 0,-5.22857 -1.18982,0 c -0.6544,0 -1.67758,-0.23259 -2.27372,-0.51687 -1.02578,-0.48917 -1.13217,-0.48917 -1.98449,0 -1.08531,0.62288 -2.82645,0.65311 -3.85197,0.0669 -0.89804,-0.51337 -1.98795,-0.574 -2.26484,-0.126 -0.11013,0.17821 -0.18064,2.7286 -0.15668,5.66755 0.0371,4.54863 -0.0282,5.41531 -0.43888,5.826 -0.40843,0.40842 -1.33222,0.48245 -6.02044,0.48245 -6.14885,0 -6.30789,0.0552 -5.52776,1.91924 0.58581,1.39973 0.72292,3.1566 0.30699,3.93377 -0.22872,0.42736 -0.29486,1.13304 -0.1729,1.84458 0.48661,2.83888 0.52394,3.50325 0.23086,4.10783 -0.56118,1.15761 -0.57958,1.52917 -0.13218,2.67006 0.28922,0.73751 0.36915,1.51311 0.23189,2.25 -0.25515,1.36972 -0.2526,3.29855 0.007,5.39952 l 0.19471,1.575 5.48895,0 c 4.72845,0 5.51418,-0.0658 5.67104,-0.47454 0.10016,-0.26099 0.1821,-2.87905 0.1821,-5.8179 0,-4.5957 0.0664,-5.36885 0.47454,-5.52546 0.86724,-0.3328 57.7172,-0.20763 58.34518,0.12846 0.55804,0.29865 0.58028,0.74642 0.58028,11.68229 0,8.76795 -0.0859,11.42731 -0.375,11.61444 -0.20625,0.13349 -5.5512,0.31021 -11.87768,0.39271 l -11.50267,0.15 -0.0473,17.4858 c -0.0411,15.18148 -0.10663,17.5233 -0.49733,17.7704 -0.26231,0.1659 -5.03949,0.28653 -11.45357,0.28921 -9.60731,0.004 -11.06339,-0.0552 -11.475,-0.46684 -0.41175,-0.41175 -0.47143,-1.8906 -0.47143,-11.68229 0,-8.63925 0.086,-11.26654 0.375,-11.45357 0.20625,-0.13349 2.8725,-0.31021 5.925,-0.39271 l 5.55,-0.15 0,-11.7 0,-11.7 -5.85,0 -5.85,0 -0.0788,5.55 c -0.068,4.78767 -0.14798,5.60151 -0.58234,5.925 -0.35866,0.26711 -2.04061,0.375 -5.84619,0.375 -3.36083,0 -5.34318,0.11128 -5.34408,0.3 -7.8e-4,0.165 -10e-4,21.4275 -10e-4,47.25 0,25.8225 6.3e-4,47.085 10e-4,47.25 9.3e-4,0.19476 4.04012,0.3 11.51469,0.3 9.37062,0 11.57661,0.0763 11.85364,0.41013 0.24377,0.29372 0.31806,3.63589 0.26174,11.775 l -0.0786,11.36487 -17.59025,0.0774 c -20.11629,0.0885 -18.7525,-0.1115 -17.82602,2.61417 0.3706,1.0903 0.47309,1.91755 0.32253,2.60329 -0.12139,0.55284 -0.2062,1.64641 -0.18848,2.43016 0.0813,3.5981 0.0637,4.35808 -0.12944,5.57601 -0.13062,0.82364 -0.0838,1.42356 0.12767,1.635 0.45965,0.45965 0.41906,2.33134 -0.077,3.55235 -0.41706,1.02647 -0.39251,1.40127 0.16738,2.55622 0.17186,0.35451 0.22949,1.19826 0.12806,1.875 -0.10142,0.67673 -0.26721,1.78212 -0.3684,2.45643 -0.1117,0.74432 -0.0528,1.35723 0.15,1.56 0.43288,0.43288 0.43288,2.6951 0,3.12798 -0.20277,0.20277 -0.2617,0.81568 -0.15,1.56 0.10119,0.67431 0.26698,1.7797 0.3684,2.45643 0.11259,0.75119 0.0401,1.50002 -0.18602,1.92259 -0.23554,0.44011 -0.29297,1.11183 -0.15771,1.84458 0.11701,0.63382 0.20072,1.79366 0.18603,2.57741 -0.0326,1.73745 -0.0342,3.94604 -0.004,5.85 0.0123,0.78375 -0.0705,2.01045 -0.18399,2.72601 -0.13062,0.82364 -0.0838,1.42356 0.12767,1.635 0.45965,0.45965 0.41906,2.33134 -0.077,3.55235 -0.41706,1.02647 -0.39251,1.40127 0.16738,2.55622 0.28843,0.59498 0.25982,1.10443 -0.24749,4.40643 -0.10483,0.68229 -0.0408,1.28702 0.15715,1.485 0.43288,0.43288 0.43288,2.6951 0,3.12798 -0.20834,0.20834 -0.2604,0.82345 -0.13838,1.635 0.10759,0.71556 0.27099,1.94334 0.36311,2.72842 l 0.16749,1.4274 17.44589,-0.0774 17.44588,-0.0774 0.0775,-17.37222 c 0.0545,-12.22293 0.17654,-17.49161 0.41173,-17.775 0.46126,-0.55578 22.44692,-0.59667 23.00081,-0.0428 0.26729,0.26729 0.36,3.27765 0.36,11.68945 0,11.03211 -0.0158,11.33789 -0.60155,11.65138 -0.36911,0.19754 -2.56653,0.30761 -5.68709,0.28487 -2.79705,-0.0204 -5.1926,0.0291 -5.32345,0.10995 -0.17351,0.10723 -0.24888,8.65604 -0.10035,11.38283 0.007,0.12567 5.31119,0.19317 11.78744,0.15 l 11.775,-0.0785 0.15,-29.55 0.15,-29.55 17.7,-0.15 17.7,-0.15 0.0765,-29.38351 c 0.0422,-16.19852 -0.0397,-29.49969 -0.18241,-29.64242 -0.1424,-0.1424 -5.39677,-0.28482 -11.67639,-0.31649 -6.27961,-0.0317 -11.53003,-0.17031 -11.66758,-0.30808 -0.30578,-0.30628 -0.33621,-10.33975 -0.0336,-11.07692 0.20361,-0.49598 1.25875,-0.52281 17.7,-0.45 l 17.48349,0.0774 0.0769,23.37149 c 0.0548,16.65963 0.17302,23.48737 0.41173,23.775 0.27353,0.32958 3.54304,0.40351 17.84467,0.40351 l 17.50979,0 0.0785,11.775 0.0785,11.775 5.85,0 5.85,0 0.082,-5.52766 c 0.0513,-3.45708 0.2055,-5.6765 0.41173,-5.925 0.25046,-0.30178 1.57844,-0.39734 5.52161,-0.39734 4.39698,0 5.26662,0.0748 5.68037,0.48854 0.41638,0.41638 0.48323,1.24719 0.45262,5.625 -0.0198,2.82505 -0.0274,5.30521 -0.0171,5.51146 0.0148,0.29555 3.76884,0.375 17.71881,0.375 9.735,0 17.72977,-0.0337 17.76616,-0.075 0.0364,-0.0412 0.13764,-5.34 0.225,-11.775 l 0.15884,-11.7 35.4,0 35.4,0 0,65.25 0,65.25 -5.43278,0.0816 c -4.26539,0.0641 -5.50483,-0.005 -5.76804,-0.32234 -0.2131,-0.25676 -0.3651,-2.41788 -0.41721,-5.9316 l -0.082,-5.52766 -5.77091,-0.0815 c -5.68751,-0.0803 -5.77328,-0.0911 -5.93555,-0.75 -0.0906,-0.36769 -0.12615,-2.96353 -0.0791,-5.76853 l 0.0855,-5.1 5.85,-0.16642 c 3.2175,-0.0915 5.88417,-0.19278 5.92593,-0.225 0.0417,-0.0322 0.0417,-21.42233 0,-47.53358 l -0.0759,-47.475 -23.7,0 -23.7,0 -0.15,17.7 -0.15,17.7 -11.7,0 -11.7,0 -0.0815,-5.775 c -0.0609,-4.31834 -0.17443,-5.77624 -0.45,-5.77991 -0.20269,-0.003 -15.91276,-6e-4 -34.91129,0.005 -22.12577,0.006 -34.82395,-0.0972 -35.325,-0.28766 l -0.78223,-0.29741 0,-5.37069 c 0,-4.09161 0.0946,-5.44923 0.39734,-5.70046 0.2485,-0.20623 2.46792,-0.36046 5.925,-0.41173 l 5.52766,-0.082 0,-5.85 0,-5.85 -11.85,0 -11.85,0 -0.0784,11.74334 -0.0785,11.74335 -0.74231,0.18631 c -0.40827,0.10246 -8.31009,0.17987 -17.5596,0.17202 -9.24951,-0.008 -16.94642,0.0655 -17.10424,0.16305 -0.45351,0.28028 -0.38198,34.72689 0.0731,35.18193 0.26743,0.26743 3.3062,0.36 11.8179,0.36 10.17137,0 11.47835,0.0533 11.64,0.47454 0.27466,0.71573 0.20959,46.11768 -0.0667,46.5529 -0.18898,0.29767 -3.94447,0.36108 -17.77041,0.3 l -17.53078,-0.0774 0,-5.7 0,-5.7 11.7,-0.15 11.7,-0.15 0,-11.85 0,-11.85 -5.775,-0.0815 c -3.17625,-0.0448 -5.80136,-0.0448 -5.83358,0 -0.0322,0.0448 -0.13346,2.71398 -0.225,5.93148 l -0.16642,5.85 -35.475,0.0762 c -28.07348,0.0603 -35.47613,0.15421 -35.48043,0.45 -0.003,0.20557 -0.003,10.70127 -4.2e-4,23.32377 l 0.005,22.95 0.63365,0.525 c 0.77275,0.64024 2.0498,0.67832 2.83485,0.0845 z m 199.10734,-11.75822 c -0.28044,-0.11316 -0.37616,-1.52556 -0.37959,-5.60132 -0.002,-2.9975 -0.10984,-5.61567 -0.23848,-5.81815 -0.16819,-0.26476 -1.83103,-0.39115 -5.9204,-0.45 l -5.68653,-0.0818 0,-5.7 0,-5.7 11.7,0 11.7,0 0.15,5.7 0.15,5.7 5.85,0 5.85,0 0.15,-5.7 0.15,-5.7 5.7,0 5.7,0 0.15,5.7 0.15,5.7 5.85,0.16642 c 3.2175,0.0915 5.88375,0.19279 5.925,0.225 0.0412,0.0322 0.075,2.60914 0.075,5.72648 0,4.89164 -0.065,5.69284 -0.47454,5.85 -0.56729,0.21769 -46.00998,0.2015 -46.55046,-0.0166 z M 171.14739,380.4015 c -0.47379,-0.34828 -0.5046,-2.04236 -0.43234,-23.775 l 0.0778,-23.4 17.5338,-0.0774 c 13.56965,-0.0599 17.5873,-0.16168 17.77041,-0.45 0.27429,-0.43191 0.33643,-46.13728 0.0637,-46.84802 -0.16165,-0.42126 -1.46864,-0.47454 -11.64,-0.47454 -8.5117,0 -11.55047,-0.0926 -11.8179,-0.36 -0.27162,-0.27162 -0.36,-4.57765 -0.36,-17.53945 0,-16.67777 0.0169,-17.18851 0.58028,-17.49 0.71582,-0.38309 22.17936,-0.42196 22.78033,-0.0412 0.50825,0.32197 0.85915,8.9114 0.43022,10.53069 l -0.27814,1.05 -5.68135,0.15 -5.68134,0.15 0,5.85 0,5.85 11.7,0 11.7,0 0.156,-17.7 c 0.0858,-9.735 0.18705,-17.73375 0.225,-17.775 0.038,-0.0412 2.53275,-0.0771 5.544,-0.0796 3.01125,-0.002 5.64682,-0.11364 5.85682,-0.24692 0.29196,-0.1853 0.36256,-1.57844 0.3,-5.92041 l -0.0818,-5.67808 -5.52766,-0.082 c -3.45708,-0.0513 -5.6765,-0.2055 -5.925,-0.41173 -0.30262,-0.25115 -0.39734,-1.60579 -0.39734,-5.68248 0,-4.98503 0.0399,-5.37404 0.58028,-5.66327 0.6247,-0.33433 21.79572,-0.45442 22.64518,-0.12845 0.40814,0.15662 0.47454,0.92976 0.47454,5.52546 0,2.93885 0.0819,5.55691 0.1821,5.8179 0.16166,0.42128 1.47068,0.47454 11.66326,0.47454 9.16322,0 11.54775,0.0802 11.81094,0.39734 0.20623,0.2485 0.36046,2.46792 0.41173,5.925 l 0.082,5.52766 29.55,0 29.55,0 0.15,-5.85 0.15,-5.85 5.54887,-0.082 c 4.95314,-0.0733 5.58925,-0.0268 5.925,0.43234 0.285,0.38976 0.37514,3.0989 0.37203,11.18205 -0.002,5.86721 -0.0848,10.96855 -0.18332,11.3363 -0.17645,0.65826 -0.26832,0.6699 -5.92091,0.75 l -5.74167,0.0814 -0.082,5.52766 c -0.0513,3.45708 -0.2055,5.6765 -0.41173,5.925 -0.46159,0.55618 -10.90468,0.57689 -11.26359,0.0223 -0.13349,-0.20626 -0.31021,-2.87251 -0.39271,-5.92501 l -0.15,-5.55 -29.38321,-0.0765 c -23.0496,-0.06 -29.43434,-0.15699 -29.62041,-0.45 -0.13046,-0.20543 -0.23926,-2.82282 -0.24179,-5.81641 -0.003,-4.094 -0.0975,-5.46945 -0.37959,-5.55 -0.20625,-0.0589 -2.8725,-0.0396 -5.925,0.0429 l -5.55,0.15 -0.15,5.7 -0.15,5.7 -5.7,0.15 -5.7,0.15 -0.0774,17.775 -0.0774,17.775 11.34504,0 c 8.60372,0 11.46842,0.0906 11.85563,0.375 0.4722,0.3468 0.50471,1.68337 0.43234,17.775 l -0.0783,17.4 -11.7,0 -11.7,0 0,-5.7 0,-5.7 5.54203,-0.082 c 3.04811,-0.0451 5.64592,-0.18591 5.7729,-0.3129 0.28067,-0.28067 0.50017,-11.02612 0.23403,-11.45675 -0.12424,-0.20103 -4.18212,-0.2786 -11.86887,-0.22689 l -11.68009,0.0786 -0.075,23.4 c -0.0696,21.7448 -0.1115,23.42701 -0.59173,23.78187 -0.40493,0.29922 -4.2048,0.3773 -17.55556,0.36071 -9.37133,-0.0116 -17.17129,0.0607 -17.33326,0.16083 -0.18717,0.11567 -0.29449,6.51296 -0.29449,17.55374 0,16.86789 -0.0168,17.38075 -0.58028,17.6823 -0.864,0.46239 -9.97371,0.40709 -10.61518,-0.0644 z m 225.53236,-24.00095 c -0.0793,-0.20677 -0.10885,-5.50552 -0.0656,-11.775 l 0.0787,-11.39905 11.1,-0.0836 c 6.105,-0.046 11.40375,-0.01 11.775,0.0807 0.66967,0.163 0.675,0.20803 0.675,5.69803 0,5.23143 -0.0329,5.55132 -0.60155,5.85567 -0.36911,0.19754 -2.56652,0.30761 -5.68709,0.28487 -2.79705,-0.0204 -5.22635,0.05 -5.39845,0.15632 -0.19939,0.12323 -0.31291,2.25481 -0.31291,5.87569 l 0,5.68229 -5.70941,0 c -4.29846,0 -5.74507,-0.0929 -5.85369,-0.37595 z m -47.47052,-35.67768 c -0.27575,-0.27574 -0.36638,-3.20862 -0.36638,-11.85637 l 0,-11.49 -5.85,0 c -4.46997,0 -5.85444,0.0885 -5.86881,0.375 -0.0103,0.20625 -0.003,2.68641 0.0171,5.51146 0.031,4.43366 -0.0328,5.20516 -0.46614,5.63852 -0.45475,0.45475 -1.55662,0.49372 -11.69246,0.41354 -6.15472,-0.0487 -11.30274,-0.20088 -11.44005,-0.33821 -0.13731,-0.13733 -0.31715,-5.46983 -0.39965,-11.85 l -0.14999,-11.60031 -11.53453,-0.0786 c -8.76966,-0.0598 -11.59107,-0.16764 -11.77041,-0.45 -0.12973,-0.20426 -0.23794,-5.3836 -0.24047,-11.50965 -0.004,-9.05771 0.072,-11.20184 0.40554,-11.47864 0.29372,-0.24377 3.63589,-0.31806 11.775,-0.26174 l 11.36487,0.0786 0.082,5.52766 c 0.0504,3.39943 0.20686,5.67814 0.40634,5.9185 0.24053,0.28983 1.76995,0.4119 5.91802,0.47234 l 5.59367,0.0815 0.0815,5.775 0.0815,5.775 41.16852,0.005 c 22.64269,0.002 41.34034,0.11364 41.55034,0.24692 0.29196,0.1853 0.36256,1.57844 0.3,5.9204 l -0.0818,5.67809 -23.55,0.15 -23.55,0.15 -0.15,11.7 -0.15,11.7 -5.55862,0.0814 c -4.07045,0.0596 -5.65672,-0.0167 -5.925,-0.28501 z m -71.49216,-95.56418 c -0.36455,-0.95883 -0.25516,-10.40282 0.12489,-10.783 0.13701,-0.13705 2.76951,-0.31669 5.85,-0.39919 l 5.60089,-0.15 0.15,-5.7 0.15,-5.7 11.7,0 11.7,0 0,11.7 0,11.7 -17.4815,0.0774 -17.48151,0.0774 -0.31277,-0.82265 z M 185.49285,451.8765 c 0.10846,-0.1755 -0.20279,-0.3 -0.75,-0.3 -0.54721,0 -0.85846,0.1245 -0.75,0.3 0.10198,0.165 0.43948,0.3 0.75,0.3 0.31052,0 0.64802,-0.135 0.75,-0.3 z m 5.7,0 c 0.10516,-0.17015 -0.14689,-0.3 -0.58229,-0.3 -0.42224,0 -0.76771,0.135 -0.76771,0.3 0,0.165 0.26203,0.3 0.58229,0.3 0.32027,0 0.66573,-0.135 0.76771,-0.3 z m 18.15,0 c 0,-0.165 -0.41297,-0.3 -0.91771,-0.3 -0.53541,0 -0.84046,0.12497 -0.73229,0.3 0.10198,0.165 0.51494,0.3 0.91771,0.3 0.40276,0 0.73229,-0.135 0.73229,-0.3 z m 5.7,0 c 0,-0.165 -0.34547,-0.3 -0.76771,-0.3 -0.4354,0 -0.68745,0.12985 -0.58229,0.3 0.10198,0.165 0.44744,0.3 0.76771,0.3 0.32026,0 0.58229,-0.135 0.58229,-0.3 z m 5.85,0 c 0.10557,-0.17082 -0.15279,-0.3 -0.6,-0.3 -0.44721,0 -0.70557,0.12918 -0.6,0.3 0.10198,0.165 0.37198,0.3 0.6,0.3 0.22802,0 0.49802,-0.135 0.6,-0.3 z m 6,0 c 0.10516,-0.17015 -0.14689,-0.3 -0.58229,-0.3 -0.42224,0 -0.76771,0.135 -0.76771,0.3 0,0.165 0.26203,0.3 0.58229,0.3 0.32027,0 0.66573,-0.135 0.76771,-0.3 z m 6,0 c 0.10846,-0.1755 -0.20279,-0.3 -0.75,-0.3 -0.54721,0 -0.85846,0.1245 -0.75,0.3 0.10198,0.165 0.43948,0.3 0.75,0.3 0.31052,0 0.64802,-0.135 0.75,-0.3 z m 6,0 c 0.10847,-0.1755 -0.20279,-0.3 -0.75,-0.3 -0.54721,0 -0.85847,0.1245 -0.75,0.3 0.10198,0.165 0.43948,0.3 0.75,0.3 0.31052,0 0.64802,-0.135 0.75,-0.3 z m 18,0 c 0.10817,-0.17503 -0.19688,-0.3 -0.73229,-0.3 -0.50474,0 -0.91771,0.135 -0.91771,0.3 0,0.165 0.32953,0.3 0.73229,0.3 0.40277,0 0.81573,-0.135 0.91771,-0.3 z m 5.7,0 c 0.10516,-0.17015 -0.14689,-0.3 -0.58229,-0.3 -0.42224,0 -0.76771,0.135 -0.76771,0.3 0,0.165 0.26203,0.3 0.58229,0.3 0.32027,0 0.66573,-0.135 0.76771,-0.3 z m 6,0 c 0.10847,-0.1755 -0.20279,-0.3 -0.75,-0.3 -0.54722,0 -0.85847,0.1245 -0.75,0.3 0.10198,0.165 0.43948,0.3 0.75,0.3 0.31052,0 0.64802,-0.135 0.75,-0.3 z m 6,0 c 0.10847,-0.1755 -0.20279,-0.3 -0.75,-0.3 -0.54722,0 -0.85847,0.1245 -0.75,0.3 0.10198,0.165 0.43948,0.3 0.75,0.3 0.31052,0 0.64802,-0.135 0.75,-0.3 z m 6,0 c 0.10847,-0.1755 -0.20279,-0.3 -0.75,-0.3 -0.54722,0 -0.85847,0.1245 -0.75,0.3 0.10198,0.165 0.43948,0.3 0.75,0.3 0.31052,0 0.64802,-0.135 0.75,-0.3 z m 5.85,0 c 0,-0.165 -0.34547,-0.3 -0.76771,-0.3 -0.4354,0 -0.68745,0.12985 -0.58229,0.3 0.10198,0.165 0.44744,0.3 0.76771,0.3 0.32026,0 0.58229,-0.135 0.58229,-0.3 z m 5.85,0 c 0.10557,-0.17082 -0.15279,-0.3 -0.6,-0.3 -0.44721,0 -0.70557,0.12918 -0.6,0.3 0.10198,0.165 0.37198,0.3 0.6,0.3 0.22802,0 0.49802,-0.135 0.6,-0.3 z m 6,0 c 0.10846,-0.1755 -0.20279,-0.3 -0.75,-0.3 -0.54722,0 -0.85846,0.1245 -0.75,0.3 0.10198,0.165 0.43948,0.3 0.75,0.3 0.31052,0 0.64802,-0.135 0.75,-0.3 z m 6,0 c 0.10846,-0.1755 -0.20279,-0.3 -0.75,-0.3 -0.54722,0 -0.85846,0.1245 -0.75,0.3 0.10198,0.165 0.43948,0.3 0.75,0.3 0.31052,0 0.64802,-0.135 0.75,-0.3 z m 6,0 c 0.10846,-0.1755 -0.20279,-0.3 -0.75,-0.3 -0.54722,0 -0.85846,0.1245 -0.75,0.3 0.10198,0.165 0.43948,0.3 0.75,0.3 0.31052,0 0.64802,-0.135 0.75,-0.3 z m 5.85,0 c 0,-0.165 -0.34547,-0.3 -0.76771,-0.3 -0.4354,0 -0.68745,0.12985 -0.58229,0.3 0.10198,0.165 0.44744,0.3 0.76771,0.3 0.32026,0 0.58229,-0.135 0.58229,-0.3 z m 5.85,0 c 0.10516,-0.17015 -0.14689,-0.3 -0.58229,-0.3 -0.42224,0 -0.76771,0.135 -0.76771,0.3 0,0.165 0.26203,0.3 0.58229,0.3 0.32027,0 0.66573,-0.135 0.76771,-0.3 z m 6,0 c 0.10516,-0.17015 -0.14689,-0.3 -0.58229,-0.3 -0.42224,0 -0.76771,0.135 -0.76771,0.3 0,0.165 0.26203,0.3 0.58229,0.3 0.32027,0 0.66573,-0.135 0.76771,-0.3 z m 6,0 c 0.10846,-0.1755 -0.20278,-0.3 -0.75,-0.3 -0.54722,0 -0.85847,0.1245 -0.75,0.3 0.10198,0.165 0.43948,0.3 0.75,0.3 0.31052,0 0.64802,-0.135 0.75,-0.3 z m 6,0 c 0.10846,-0.1755 -0.20278,-0.3 -0.75,-0.3 -0.54722,0 -0.85847,0.1245 -0.75,0.3 0.10198,0.165 0.43948,0.3 0.75,0.3 0.31052,0 0.64802,-0.135 0.75,-0.3 z m 6,0 c 0.10846,-0.1755 -0.20278,-0.3 -0.75,-0.3 -0.54722,0 -0.85847,0.1245 -0.75,0.3 0.10198,0.165 0.43948,0.3 0.75,0.3 0.31052,0 0.64802,-0.135 0.75,-0.3 z m 5.85,0 c 0,-0.165 -0.34547,-0.3 -0.76771,-0.3 -0.4354,0 -0.68745,0.12985 -0.58229,0.3 0.10198,0.165 0.44744,0.3 0.76771,0.3 0.32026,0 0.58229,-0.135 0.58229,-0.3 z m 5.85,0 c 0.10516,-0.17015 -0.14689,-0.3 -0.58229,-0.3 -0.42224,0 -0.76771,0.135 -0.76771,0.3 0,0.165 0.26203,0.3 0.58229,0.3 0.32027,0 0.66573,-0.135 0.76771,-0.3 z m -198.45,-4.18229 c 0,-0.32027 -0.135,-0.66573 -0.3,-0.76771 -0.17015,-0.10516 -0.3,0.14689 -0.3,0.58229 0,0.42224 0.135,0.76771 0.3,0.76771 0.165,0 0.3,-0.26203 0.3,-0.58229 z m 0,-6 c 0,-0.32027 -0.135,-0.66573 -0.3,-0.76771 -0.17015,-0.10516 -0.3,0.14689 -0.3,0.58229 0,0.42224 0.135,0.76771 0.3,0.76771 0.165,0 0.3,-0.26203 0.3,-0.58229 z m 0,-6.03542 c 0,-0.32026 -0.135,-0.58229 -0.3,-0.58229 -0.165,0 -0.3,0.34547 -0.3,0.76771 0,0.4354 0.12985,0.68745 0.3,0.58229 0.165,-0.10198 0.3,-0.44744 0.3,-0.76771 z m 0,-6 c 0,-0.32026 -0.135,-0.58229 -0.3,-0.58229 -0.165,0 -0.3,0.34547 -0.3,0.76771 0,0.4354 0.12985,0.68745 0.3,0.58229 0.165,-0.10198 0.3,-0.44744 0.3,-0.76771 z m 0,-6 c 0,-0.32026 -0.135,-0.58229 -0.3,-0.58229 -0.165,0 -0.3,0.34547 -0.3,0.76771 0,0.4354 0.12985,0.68745 0.3,0.58229 0.165,-0.10198 0.3,-0.44744 0.3,-0.76771 z m 0,-5.83229 c 0,-0.4125 -0.135,-0.75 -0.3,-0.75 -0.165,0 -0.3,0.3375 -0.3,0.75 0,0.4125 0.135,0.75 0.3,0.75 0.165,0 0.3,-0.3375 0.3,-0.75 z m 0,-5.83229 c 0,-0.32027 -0.135,-0.66573 -0.3,-0.76771 -0.17015,-0.10516 -0.3,0.14689 -0.3,0.58229 0,0.42224 0.135,0.76771 0.3,0.76771 0.165,0 0.3,-0.26203 0.3,-0.58229 z m 0,-6 c 0,-0.32027 -0.135,-0.66573 -0.3,-0.76771 -0.17015,-0.10516 -0.3,0.14689 -0.3,0.58229 0,0.42224 0.135,0.76771 0.3,0.76771 0.165,0 0.3,-0.26203 0.3,-0.58229 z m 0,-6.03542 c 0,-0.32026 -0.135,-0.58229 -0.3,-0.58229 -0.165,0 -0.3,0.34547 -0.3,0.76771 0,0.4354 0.12985,0.68745 0.3,0.58229 0.165,-0.10198 0.3,-0.44744 0.3,-0.76771 z m 0,-5.66458 c 0,-0.32027 -0.135,-0.66573 -0.3,-0.76771 -0.17015,-0.10516 -0.3,0.14689 -0.3,0.58229 0,0.42224 0.135,0.76771 0.3,0.76771 0.165,0 0.3,-0.26203 0.3,-0.58229 z m 0,-77.73542 c 0,-0.32026 -0.135,-0.58229 -0.3,-0.58229 -0.165,0 -0.3,0.34547 -0.3,0.76771 0,0.4354 0.12985,0.68745 0.3,0.58229 0.165,-0.10198 0.3,-0.44744 0.3,-0.76771 z m 0,-5.83229 c 0,-0.4125 -0.135,-0.75 -0.3,-0.75 -0.165,0 -0.3,0.3375 -0.3,0.75 0,0.4125 0.135,0.75 0.3,0.75 0.165,0 0.3,-0.3375 0.3,-0.75 z m 0,-5.83229 c 0,-0.32027 -0.135,-0.66573 -0.3,-0.76771 -0.17015,-0.10516 -0.3,0.14689 -0.3,0.58229 0,0.42224 0.135,0.76771 0.3,0.76771 0.165,0 0.3,-0.26203 0.3,-0.58229 z m 0,-6 c 0,-0.32027 -0.135,-0.66573 -0.3,-0.76771 -0.17015,-0.10516 -0.3,0.14689 -0.3,0.58229 0,0.42224 0.135,0.76771 0.3,0.76771 0.165,0 0.3,-0.26203 0.3,-0.58229 z m 0,-6.03542 c 0,-0.32026 -0.135,-0.58229 -0.3,-0.58229 -0.165,0 -0.3,0.34547 -0.3,0.76771 0,0.4354 0.12985,0.68745 0.3,0.58229 0.165,-0.10198 0.3,-0.44744 0.3,-0.76771 z m 0,-6 c 0,-0.32026 -0.135,-0.58229 -0.3,-0.58229 -0.165,0 -0.3,0.34547 -0.3,0.76771 0,0.4354 0.12985,0.68745 0.3,0.58229 0.165,-0.10198 0.3,-0.44744 0.3,-0.76771 z m 0,-6 c 0,-0.32026 -0.135,-0.58229 -0.3,-0.58229 -0.165,0 -0.3,0.34547 -0.3,0.76771 0,0.4354 0.12985,0.68745 0.3,0.58229 0.165,-0.10198 0.3,-0.44744 0.3,-0.76771 z m 0,-5.66458 c 0,-0.32027 -0.135,-0.66573 -0.3,-0.76771 -0.17015,-0.10516 -0.3,0.14689 -0.3,0.58229 0,0.42224 0.135,0.76771 0.3,0.76771 0.165,0 0.3,-0.26203 0.3,-0.58229 z m 0,-6 c 0,-0.32027 -0.135,-0.66573 -0.3,-0.76771 -0.17015,-0.10516 -0.3,0.14689 -0.3,0.58229 0,0.42224 0.135,0.76771 0.3,0.76771 0.165,0 0.3,-0.26203 0.3,-0.58229 z m 0,-6 c 0,-0.32027 -0.135,-0.66573 -0.3,-0.76771 -0.17015,-0.10516 -0.3,0.14689 -0.3,0.58229 0,0.42224 0.135,0.76771 0.3,0.76771 0.165,0 0.3,-0.26203 0.3,-0.58229 z m 0,-6.03542 c 0,-0.32026 -0.135,-0.58229 -0.3,-0.58229 -0.165,0 -0.3,0.34547 -0.3,0.76771 0,0.4354 0.12985,0.68745 0.3,0.58229 0.165,-0.10198 0.3,-0.44744 0.3,-0.76771 z m 0,-6 c 0,-0.32026 -0.135,-0.58229 -0.3,-0.58229 -0.165,0 -0.3,0.34547 -0.3,0.76771 0,0.4354 0.12985,0.68745 0.3,0.58229 0.165,-0.10198 0.3,-0.44744 0.3,-0.76771 z m 296.7,-5.25 c 0,-0.4354 -0.12985,-0.68745 -0.3,-0.58229 -0.165,0.10198 -0.3,0.44744 -0.3,0.76771 0,0.32026 0.135,0.58229 0.3,0.58229 0.165,0 0.3,-0.34547 0.3,-0.76771 z m -296.7,-0.75 c 0,-0.32026 -0.135,-0.58229 -0.3,-0.58229 -0.165,0 -0.3,0.34547 -0.3,0.76771 0,0.4354 0.12985,0.68745 0.3,0.58229 0.165,-0.10198 0.3,-0.44744 0.3,-0.76771 z m 296.61842,-5.60729 c -0.11959,-0.5 -0.13645,-0.5 -0.35409,0 -0.12569,0.28875 -0.12569,0.76125 0,1.05 0.21764,0.5 0.2345,0.5 0.35409,0 0.0691,-0.28875 0.0691,-0.76125 0,-1.05 z m -296.61842,-0.0573 c 0,-0.32027 -0.135,-0.66573 -0.3,-0.76771 -0.17015,-0.10516 -0.3,0.14689 -0.3,0.58229 0,0.42224 0.135,0.76771 0.3,0.76771 0.165,0 0.3,-0.26203 0.3,-0.58229 z m 296.7,-5.26771 c 0,-0.4125 -0.135,-0.75 -0.3,-0.75 -0.33515,0 -0.41121,0.98879 -0.1,1.3 0.3307,0.3307 0.4,0.23542 0.4,-0.55 z m -296.7,-0.73229 c 0,-0.32027 -0.135,-0.66573 -0.3,-0.76771 -0.17015,-0.10516 -0.3,0.14689 -0.3,0.58229 0,0.42224 0.135,0.76771 0.3,0.76771 0.165,0 0.3,-0.26203 0.3,-0.58229 z m 296.7,-5.26771 c 0,-0.4125 -0.135,-0.75 -0.3,-0.75 -0.33515,0 -0.41121,0.98879 -0.1,1.3 0.3307,0.3307 0.4,0.23542 0.4,-0.55 z m -296.7,-0.73229 c 0,-0.32027 -0.135,-0.66573 -0.3,-0.76771 -0.17015,-0.10516 -0.3,0.14689 -0.3,0.58229 0,0.42224 0.135,0.76771 0.3,0.76771 0.165,0 0.3,-0.26203 0.3,-0.58229 z m 296.7,-5.26771 c 0,-0.4125 -0.135,-0.75 -0.3,-0.75 -0.165,0 -0.3,0.3375 -0.3,0.75 0,0.4125 0.135,0.75 0.3,0.75 0.165,0 0.3,-0.3375 0.3,-0.75 z m -296.7,-0.76771 c 0,-0.32026 -0.135,-0.58229 -0.3,-0.58229 -0.165,0 -0.3,0.34547 -0.3,0.76771 0,0.4354 0.12985,0.68745 0.3,0.58229 0.165,-0.10198 0.3,-0.44744 0.3,-0.76771 z m 296.7,-5.08229 c 0,-0.495 -0.135,-0.9 -0.3,-0.9 -0.33369,0 -0.41406,1.28594 -0.1,1.6 0.33893,0.33893 0.4,0.23206 0.4,-0.7 z m -296.7,-0.91771 c 0,-0.32026 -0.135,-0.58229 -0.3,-0.58229 -0.165,0 -0.3,0.34547 -0.3,0.76771 0,0.4354 0.12985,0.68745 0.3,0.58229 0.165,-0.10198 0.3,-0.44744 0.3,-0.76771 z m 0,-6 c 0,-0.32026 -0.135,-0.58229 -0.3,-0.58229 -0.165,0 -0.3,0.34547 -0.3,0.76771 0,0.4354 0.12985,0.68745 0.3,0.58229 0.165,-0.10198 0.3,-0.44744 0.3,-0.76771 z m 0,-5.66458 c 0,-0.32027 -0.135,-0.66573 -0.3,-0.76771 -0.17015,-0.10516 -0.3,0.14689 -0.3,0.58229 0,0.42224 0.135,0.76771 0.3,0.76771 0.165,0 0.3,-0.26203 0.3,-0.58229 z m 0,-6 c 0,-0.32027 -0.135,-0.66573 -0.3,-0.76771 -0.17015,-0.10516 -0.3,0.14689 -0.3,0.58229 0,0.42224 0.135,0.76771 0.3,0.76771 0.165,0 0.3,-0.26203 0.3,-0.58229 z m 0,-6.03542 c 0,-0.32026 -0.135,-0.58229 -0.3,-0.58229 -0.165,0 -0.3,0.34547 -0.3,0.76771 0,0.4354 0.12985,0.68745 0.3,0.58229 0.165,-0.10198 0.3,-0.44744 0.3,-0.76771 z m 0,-29.66458 c 0,-0.32027 -0.135,-0.66573 -0.3,-0.76771 -0.17015,-0.10516 -0.3,0.14688 -0.3,0.58229 0,0.42224 0.135,0.76771 0.3,0.76771 0.165,0 0.3,-0.26203 0.3,-0.58229 z m 0,-5.55 c 0,-0.0728 -0.135,-0.21573 -0.3,-0.31771 -0.165,-0.10198 -0.3,-0.0424 -0.3,0.13229 0,0.17474 0.135,0.31771 0.3,0.31771 0.165,0 0.3,-0.0595 0.3,-0.13229 z m 1.125,-1.45356 c 0.20625,0.0747 0.375,-0.0104 0.375,-0.18915 0,-0.46309 -1.36174,-0.40307 -1.76066,0.0776 -0.4718,0.56848 -0.0356,0.88338 0.53631,0.3872 0.26089,-0.22633 0.6431,-0.35037 0.84935,-0.27565 z m 6.375,-0.21415 c 0,-0.165 -0.34547,-0.3 -0.76771,-0.3 -0.43541,0 -0.68745,0.12985 -0.58229,0.3 0.10198,0.165 0.44744,0.3 0.76771,0.3 0.32026,0 0.58229,-0.135 0.58229,-0.3 z m 18,0 c 0,-0.165 -0.3375,-0.3 -0.75,-0.3 -0.4125,0 -0.75,0.135 -0.75,0.3 0,0.165 0.3375,0.3 0.75,0.3 0.4125,0 0.75,-0.135 0.75,-0.3 z m 5.85,0 c 0.10847,-0.1755 -0.20279,-0.3 -0.75,-0.3 -0.54722,0 -0.85846,0.1245 -0.75,0.3 0.10198,0.165 0.43948,0.3 0.75,0.3 0.31052,0 0.64802,-0.135 0.75,-0.3 z m 5.85,0 c 0,-0.165 -0.34547,-0.3 -0.76771,-0.3 -0.4354,0 -0.68745,0.12985 -0.58229,0.3 0.10198,0.165 0.44744,0.3 0.76771,0.3 0.32026,0 0.58229,-0.135 0.58229,-0.3 z m 6,0 c 0,-0.165 -0.34547,-0.3 -0.76771,-0.3 -0.4354,0 -0.68745,0.12985 -0.58229,0.3 0.10198,0.165 0.44744,0.3 0.76771,0.3 0.32026,0 0.58229,-0.135 0.58229,-0.3 z m 5.85,0 c 0.10516,-0.17015 -0.14689,-0.3 -0.58229,-0.3 -0.42224,0 -0.76771,0.135 -0.76771,0.3 0,0.165 0.26203,0.3 0.58229,0.3 0.32027,0 0.66573,-0.135 0.76771,-0.3 z m 6,0 c 0.10516,-0.17015 -0.14689,-0.3 -0.58229,-0.3 -0.42224,0 -0.76771,0.135 -0.76771,0.3 0,0.165 0.26203,0.3 0.58229,0.3 0.32027,0 0.66573,-0.135 0.76771,-0.3 z m 6,0 c 0.10516,-0.17015 -0.14689,-0.3 -0.58229,-0.3 -0.42224,0 -0.76771,0.135 -0.76771,0.3 0,0.165 0.26203,0.3 0.58229,0.3 0.32027,0 0.66573,-0.135 0.76771,-0.3 z m 5.85,0 c 0,-0.165 -0.34547,-0.3 -0.76771,-0.3 -0.4354,0 -0.68745,0.12985 -0.58229,0.3 0.10198,0.165 0.44744,0.3 0.76771,0.3 0.32026,0 0.58229,-0.135 0.58229,-0.3 z m 53.7,0 c 0,-0.165 -0.3375,-0.3 -0.75,-0.3 -0.4125,0 -0.75,0.135 -0.75,0.3 0,0.165 0.3375,0.3 0.75,0.3 0.4125,0 0.75,-0.135 0.75,-0.3 z m 5.85,0 c 0.10516,-0.17015 -0.14689,-0.3 -0.58229,-0.3 -0.42224,0 -0.76771,0.135 -0.76771,0.3 0,0.165 0.26203,0.3 0.58229,0.3 0.32027,0 0.66573,-0.135 0.76771,-0.3 z m 6,0 c 0.10847,-0.1755 -0.20278,-0.3 -0.75,-0.3 -0.54722,0 -0.85847,0.1245 -0.75,0.3 0.10198,0.165 0.43948,0.3 0.75,0.3 0.31052,0 0.64802,-0.135 0.75,-0.3 z m 5.85,0 c 0,-0.165 -0.34547,-0.3 -0.76771,-0.3 -0.4354,0 -0.68745,0.12985 -0.58229,0.3 0.10198,0.165 0.44744,0.3 0.76771,0.3 0.32026,0 0.58229,-0.135 0.58229,-0.3 z m 6,0 c 0,-0.165 -0.34547,-0.3 -0.76771,-0.3 -0.4354,0 -0.68745,0.12985 -0.58229,0.3 0.10198,0.165 0.44744,0.3 0.76771,0.3 0.32026,0 0.58229,-0.135 0.58229,-0.3 z m 5.85,0 c 0.10516,-0.17015 -0.14689,-0.3 -0.58229,-0.3 -0.42224,0 -0.76771,0.135 -0.76771,0.3 0,0.165 0.26203,0.3 0.58229,0.3 0.32027,0 0.66573,-0.135 0.76771,-0.3 z m 6,0 c 0.10516,-0.17015 -0.14689,-0.3 -0.58229,-0.3 -0.42224,0 -0.76771,0.135 -0.76771,0.3 0,0.165 0.26203,0.3 0.58229,0.3 0.32027,0 0.66573,-0.135 0.76771,-0.3 z m 6,0 c 0.10516,-0.17015 -0.14689,-0.3 -0.58229,-0.3 -0.42224,0 -0.76771,0.135 -0.76771,0.3 0,0.165 0.26203,0.3 0.58229,0.3 0.32027,0 0.66573,-0.135 0.76771,-0.3 z m 5.85,0 c 0,-0.165 -0.34547,-0.3 -0.76771,-0.3 -0.4354,0 -0.68745,0.12985 -0.58229,0.3 0.10198,0.165 0.44744,0.3 0.76771,0.3 0.32026,0 0.58229,-0.135 0.58229,-0.3 z m 6,0 c 0,-0.165 -0.34547,-0.3 -0.76771,-0.3 -0.4354,0 -0.68745,0.12985 -0.58229,0.3 0.10198,0.165 0.44744,0.3 0.76771,0.3 0.32026,0 0.58229,-0.135 0.58229,-0.3 z m 6,0 c 0,-0.165 -0.34547,-0.3 -0.76771,-0.3 -0.4354,0 -0.68745,0.12985 -0.58229,0.3 0.10198,0.165 0.44744,0.3 0.76771,0.3 0.32026,0 0.58229,-0.135 0.58229,-0.3 z m 5.85,0 c 0.10516,-0.17015 -0.14689,-0.3 -0.58229,-0.3 -0.42224,0 -0.76771,0.135 -0.76771,0.3 0,0.165 0.26203,0.3 0.58229,0.3 0.32027,0 0.66573,-0.135 0.76771,-0.3 z m 41.85,0 c 0,-0.165 -0.3375,-0.3 -0.75,-0.3 -0.4125,0 -0.75,0.135 -0.75,0.3 0,0.165 0.3375,0.3 0.75,0.3 0.4125,0 0.75,-0.135 0.75,-0.3 z m 5.7,0 c 0,-0.165 -0.34547,-0.3 -0.76771,-0.3 -0.4354,0 -0.68745,0.12985 -0.58229,0.3 0.10198,0.165 0.44744,0.3 0.76771,0.3 0.32026,0 0.58229,-0.135 0.58229,-0.3 z m 6,0 c 0,-0.165 -0.34547,-0.3 -0.76771,-0.3 -0.4354,0 -0.68745,0.12985 -0.58229,0.3 0.10198,0.165 0.44744,0.3 0.76771,0.3 0.32026,0 0.58229,-0.135 0.58229,-0.3 z m 6,0 c 0,-0.165 -0.34547,-0.3 -0.76771,-0.3 -0.4354,0 -0.68745,0.12985 -0.58229,0.3 0.10198,0.165 0.44744,0.3 0.76771,0.3 0.32026,0 0.58229,-0.135 0.58229,-0.3 z m 5.85,0 c 0.10516,-0.17015 -0.14689,-0.3 -0.58229,-0.3 -0.42224,0 -0.76771,0.135 -0.76771,0.3 0,0.165 0.26203,0.3 0.58229,0.3 0.32027,0 0.66573,-0.135 0.76771,-0.3 z m 6,0 c 0.10516,-0.17015 -0.14689,-0.3 -0.58229,-0.3 -0.42224,0 -0.76771,0.135 -0.76771,0.3 0,0.165 0.26203,0.3 0.58229,0.3 0.32027,0 0.66573,-0.135 0.76771,-0.3 z m 6,0 c 0.10516,-0.17015 -0.14689,-0.3 -0.58229,-0.3 -0.42224,0 -0.76771,0.135 -0.76771,0.3 0,0.165 0.26203,0.3 0.58229,0.3 0.32027,0 0.66573,-0.135 0.76771,-0.3 z m 5.85,0 c 0,-0.165 -0.34547,-0.3 -0.76771,-0.3 -0.4354,0 -0.68745,0.12985 -0.58229,0.3 0.10198,0.165 0.44744,0.3 0.76771,0.3 0.32026,0 0.58229,-0.135 0.58229,-0.3 z m 6,0 c 0,-0.165 -0.34547,-0.3 -0.76771,-0.3 -0.4354,0 -0.68745,0.12985 -0.58229,0.3 0.10198,0.165 0.44744,0.3 0.76771,0.3 0.32026,0 0.58229,-0.135 0.58229,-0.3 z m 6,0 c 0,-0.165 -0.34547,-0.3 -0.76771,-0.3 -0.4354,0 -0.68745,0.12985 -0.58229,0.3 0.10198,0.165 0.44744,0.3 0.76771,0.3 0.32026,0 0.58229,-0.135 0.58229,-0.3 z"
       style="fill:#000000;fill-opacity:1;stroke:none;stroke-opacity:1" />
  </g>
</svg>
